<svg width="24" height="24" viewBox="0 0 24 24" fill="none" xmlns="http://www.w3.org/2000/svg">
<path d="M19.5781 3.37115C19.7799 3.36223 19.9802 3.41255 20.1533 3.51666V3.51764C20.3596 3.64658 20.5108 3.84782 20.5762 4.08209V4.08307C20.6421 4.32473 20.6324 4.59022 20.5605 4.91022L20.5586 4.91998L17.7637 19.2344L17.75 19.2706L17.749 19.2725V19.2715C17.7487 19.2724 17.7476 19.2748 17.7461 19.2784C17.743 19.2857 17.7375 19.2987 17.7295 19.3155C17.7134 19.3493 17.6873 19.3996 17.6504 19.459C17.5944 19.5492 17.5162 19.6568 17.4121 19.7598L17.2988 19.8614C17.0026 20.0998 16.3857 20.2631 15.7598 19.9883L15.7568 19.9874L15.7168 19.9698L12.1309 17.2188L11.8828 17.0274L11.6504 17.2393L9.49707 19.1993L9.48828 19.2071L9.48633 19.2081C9.48519 19.2089 9.48367 19.2104 9.48145 19.212C9.474 19.2171 9.46057 19.2257 9.44238 19.2364C9.40554 19.258 9.35055 19.287 9.28223 19.3116C9.14462 19.3612 8.96828 19.3889 8.77734 19.3311L8.75293 19.3243L8.72754 19.3204L8.70312 19.3165C8.70169 19.3162 8.70042 19.3157 8.69922 19.3155C8.69579 19.3141 8.69217 19.313 8.68848 19.3116L8.69043 19.3057C8.65921 19.297 8.62949 19.2841 8.60156 19.2676C8.53095 19.222 8.47095 19.1666 8.4209 19.0997L8.41406 19.0899L8.32227 18.961C8.23217 18.815 8.14419 18.6139 8.04785 18.3067V18.3057L6.70312 13.9307L6.64648 13.7481L6.46484 13.6866L2.80273 12.4532L2.77051 12.4415C2.74991 12.4331 2.72019 12.4212 2.68457 12.4044C2.60613 12.3672 2.50151 12.3111 2.39648 12.2364C2.19173 12.0907 1.96011 11.8655 1.89355 11.5147L3.06152 11.7491L7.23242 13.1534L7.2998 13.4854L7.75879 13.2012L15.7842 8.22858L9.44727 14.1358L9.35254 14.2247L9.33301 14.3526L8.77051 17.9454L8.60547 18.9981L9.39355 18.2803L11.8389 16.0508L16.0225 19.2579L16.0635 19.2901L16.1123 19.3096C16.2401 19.3603 16.3724 19.4021 16.502 19.3995C16.6769 19.3958 16.7849 19.3137 16.833 19.2755V19.2745C16.8919 19.2275 16.9348 19.1788 16.9658 19.1348C16.9836 19.1096 17.0037 19.0753 17.0098 19.0645L17.043 19.0089L17.0557 18.9454L19.8291 4.74713L19.8369 4.71198V4.68951C19.8422 4.66025 19.8492 4.63214 19.8506 4.6026C19.8515 4.58264 19.8507 4.56303 19.8506 4.55865L19.876 4.15924H19.4561C19.4491 4.15937 19.4343 4.16044 19.417 4.16217C19.3981 4.16407 19.371 4.16735 19.3398 4.17682C19.3075 4.1867 19.2824 4.19956 19.2666 4.20807C19.2651 4.20886 19.2633 4.20915 19.2617 4.21002L19.2559 4.21295C18.3395 4.59338 17.4242 4.97646 16.5098 5.36139H16.5088C14.9679 6.01223 12.9644 6.85573 10.9756 7.69342C8.98921 8.52967 7.01859 9.35971 5.54492 9.98053C4.80808 10.2909 4.19508 10.549 3.7666 10.7296C3.55244 10.8198 3.38413 10.8912 3.26953 10.9395C3.21239 10.9636 3.16821 10.9818 3.13867 10.9942C3.1289 10.9983 3.12086 11.0022 3.11426 11.0049L3.09082 11.0137L3.06934 11.0215L3.04883 11.0313L3.04004 11.0352L3.03027 11.0401L1.88965 11.4952C1.88713 11.4803 1.88276 11.4655 1.88086 11.4503V11.4493L1.875 11.3692C1.8733 11.2374 1.90719 11.1061 1.95801 10.9962L2.02637 10.8751C2.09139 10.7793 2.17113 10.6944 2.26172 10.6231L2.35645 10.5557L2.36816 10.5479C2.48549 10.4675 2.60232 10.408 2.69043 10.3682C2.73413 10.3485 2.77036 10.3343 2.79395 10.3253V10.3243L2.79492 10.3253L2.80566 10.3214H2.80664L2.80859 10.3204C2.80945 10.32 2.81029 10.3189 2.81152 10.3184L2.8418 10.3077L2.84082 10.3057C2.84376 10.3045 2.84729 10.3042 2.85059 10.3028C2.88016 10.2903 2.92418 10.2713 2.98145 10.2471C3.0959 10.1989 3.2638 10.1283 3.47754 10.0381C3.9057 9.85762 4.51849 9.5995 5.25488 9.28912C6.72776 8.66832 8.69728 7.83824 10.6836 7.00201L16.2197 4.66998C17.6469 4.07142 18.6166 3.66439 18.9238 3.53912H18.9277L18.9971 3.5108C19.1821 3.43361 19.3782 3.38618 19.5781 3.37115ZM8.76758 19.3487C8.76871 19.3494 8.76968 19.3501 8.77051 19.3506L8.76953 19.3497C8.76625 19.3476 8.75903 19.3441 8.75 19.3389C8.75795 19.3431 8.76406 19.3466 8.76758 19.3487ZM16.9531 7.64655V7.64752L16.9521 7.64655L16.9502 7.64557C16.9488 7.6447 16.9468 7.64354 16.9453 7.64264C16.9439 7.64179 16.9428 7.64059 16.9414 7.63971L16.9531 7.64655Z" fill="#0A1515" stroke="#0F1E1E" stroke-width="0.75"/>
</svg>
